<svg id="visual" viewBox="0 0 900 600" width="900" height="600" xmlns="http://www.w3.org/2000/svg" xmlns:xlink="http://www.w3.org/1999/xlink" version="1.1"><path d="M0 37L75 79L150 43L225 43L300 61L375 79L450 55L525 43L600 49L675 73L750 61L825 61L900 73L900 0L825 0L750 0L675 0L600 0L525 0L450 0L375 0L300 0L225 0L150 0L75 0L0 0Z" fill="#01c10d"></path><path d="M0 181L75 277L150 211L225 169L300 271L375 265L450 289L525 187L600 175L675 241L750 247L825 217L900 193L900 71L825 59L750 59L675 71L600 47L525 41L450 53L375 77L300 59L225 41L150 41L75 77L0 35Z" fill="#00b31c"></path><path d="M0 391L75 403L150 385L225 379L300 385L375 337L450 421L525 313L600 385L675 349L750 445L825 343L900 343L900 191L825 215L750 245L675 239L600 173L525 185L450 287L375 263L300 269L225 167L150 209L75 275L0 179Z" fill="#00a524"></path><path d="M0 439L75 481L150 445L225 451L300 451L375 391L450 475L525 385L600 433L675 409L750 481L825 421L900 415L900 341L825 341L750 443L675 347L600 383L525 311L450 419L375 335L300 383L225 377L150 383L75 401L0 389Z" fill="#009729"></path><path d="M0 529L75 523L150 493L225 511L300 493L375 475L450 541L525 487L600 535L675 487L750 535L825 511L900 511L900 413L825 419L750 479L675 407L600 431L525 383L450 473L375 389L300 449L225 449L150 443L75 479L0 437Z" fill="#00892c"></path><path d="M0 601L75 601L150 601L225 601L300 601L375 601L450 601L525 601L600 601L675 601L750 601L825 601L900 601L900 509L825 509L750 533L675 485L600 533L525 485L450 539L375 473L300 491L225 509L150 491L75 521L0 527Z" fill="#007b2d"></path></svg>